General
Complete name                            : E:EncodeEverytime Alternate Version HQ-[karaoke].mp4
Format                                   : MPEG-4
Format profile                           : Base Media
Codec ID                                 : isom
File size                                : 150 MiB
Duration                                 : 4mn 2s
Overall bit rate mode                    : Variable
Overall bit rate                         : 5 175 Kbps
Encoded date                             : UTC 2012-03-12 23:03:43
Tagged date                              : UTC 2012-03-12 23:03:43

Video
ID                                       : 1
Format                                   : AVC
Format/Info                              : Advanced Video Codec
Format profile                           : High@L4.1
Format settings, CABAC                   : Yes
Format settings, ReFrames                : 3 frames
Codec ID                                 : avc1
Codec ID/Info                            : Advanced Video Coding
Duration                                 : 4mn 2s
Bit rate mode                            : Variable
Bit rate                                 : 4 878 Kbps
Maximum bit rate                         : 40.0 Mbps
Width                                    : 704 pixels
Height                                   : 544 pixels
Display aspect ratio                     : 1.294
Frame rate mode                          : Constant
Frame rate                               : 23.976 fps
Color space                              : YUV
Chroma subsampling                       : 4:2:0
Bit depth                                : 8 bits
Scan type                                : Progressive
Bits/(Pixel*Frame)                       : 0.531
Stream size                              : 140 MiB (94%)
Writing library                          : x264 core 120 r2164 da19765
Encoding settings                        : cabac=1 / ref=4 / deblock=1:0:0 / analyse=0x3:0x113 / me=hex / subme=7 / psy=1 / psy_rd=1.00:0.00 / mixed_ref=1 / me_range=16 / chroma_me=1 / trellis=1 / 8x8dct=1 / cqm=0 / deadzone=21,11 / fast_pskip=1 / chroma_qp_offset=-2 / threads=6 / sliced_threads=0 / slices=4 / nr=0 / decimate=1 / interlaced=0 / bluray_compat=0 / constrained_intra=0 / bframes=3 / b_pyramid=1 / b_adapt=1 / b_bias=0 / direct=1 / weightb=1 / open_gop=0 / weightp=0 / keyint=23 / keyint_min=1 / scenecut=40 / intra_refresh=0 / rc_lookahead=23 / rc=2pass / mbtree=1 / bitrate=4878 / ratetol=1.0 / qcomp=0.60 / qpmin=10 / qpmax=51 / qpstep=4 / cplxblur=20.0 / qblur=0.5 / vbv_maxrate=40000 / vbv_bufsize=30000 / nal_hrd=vbr / ip_ratio=1.40 / aq=1:1.00
Encoded date                             : UTC 2012-03-12 23:03:43
Tagged date                              : UTC 2012-03-12 23:03:46

Audio
ID                                       : 2
Format                                   : AAC
Format/Info                              : Advanced Audio Codec
Format profile                           : LC
Codec ID                                 : 40
Duration                                 : 4mn 2s
Bit rate mode                            : Variable
Bit rate                                 : 320 Kbps
Maximum bit rate                         : 328 Kbps
Channel(s)                               : 2 channels
Channel positions                        : Front: L R
Sampling rate                            : 48.0 KHz
Compression mode                         : Lossy
Stream size                              : 9.24 MiB (6%)
Encoded date                             : UTC 2012-03-12 23:03:45
Tagged date                              : UTC 2012-03-12 23:03:46

